<!-- Generated by IcoMoon.io -->
<svg version="1.1" xmlns="http://www.w3.org/2000/svg" width="768" height="768" viewBox="0 0 768 768">
<g id="icomoon-ignore">
</g>
<path fill="#000" d="M607.5 655.5q46.5 0 79.5-32.25t33-78.75-33-79.5-79.5-33-78.75 33-32.25 79.5 32.25 78.75 78.75 32.25zM607.5 384q67.5 0 114 46.5t46.5 114-46.5 113.25-114 45.75-113.25-45.75-45.75-113.25 45.75-114 113.25-46.5zM345 336l70.5 73.5v198h-63v-159l-103.5-90q-18-12-18-45 0-27 18-45l90-90q12-18 45-18 28.5 0 51 18l61.5 61.5q48 48 114 48v64.5q-94.5 0-162-67.5l-25.5-25.5zM160.5 655.5q46.5 0 78.75-32.25t32.25-78.75-32.25-79.5-78.75-33-79.5 33-33 79.5 33 78.75 79.5 32.25zM160.5 384q67.5 0 113.25 46.5t45.75 114-45.75 113.25-113.25 45.75-114-45.75-46.5-113.25 46.5-114 114-46.5zM496.5 175.5q-25.5 0-45-18.75t-19.5-44.25 19.5-45 45-19.5 44.25 19.5 18.75 45-18.75 44.25-44.25 18.75z"></path>
</svg>
